# xmcd
#
# Track frame offsets:
#	150
#	16743
#	36508
#	55390
#	76566
#	96435
#	113463
#	129535
#	146523
#	165365
#	180446
#	198635
#	214410
#	233976
#	252519
#	271114
#	290042
#	319817
#
# Disc length: 4279 seconds
#
# Revision: 1
# Processed by: cddbd v1.5.2PL0 Copyright (c) Steve Scherf et al.
# Submitted via: audiograbber 1.83.01
#
DISCID=0110b512
DTITLE=Chartbusters - Country 500 Vol.1 d.27 8532-27
DYEAR=1900
DGENRE=karaoke
TTITLE0=Keith Urban - Where the Blacktop Ends
TTITLE1=Brad Paisley - Two People Fell in Love
TTITLE2=JoDee Messina and Tim McGraw - Bring on the Rain
TTITLE3=Tim McGraw - Angry All the Time
TTITLE4=Kenney Chesney - Young
TTITLE5=Tommy Shane Steiner - What If She's an Angel
TTITLE6=Kenney Chesney - The good stuff
TTITLE7=Tammy Cochran - Angels in waiting
TTITLE8=Travis Tritt - Modern Day Bonnie and Clyde
TTITLE9=Andy Griggs - Tonight I Wanna Be Your Man
TTITLE10=Anthony Smith - If That Ain't Country
TTITLE11=Brad Paisley - I'm gonna miss her
TTITLE12=Martina McBride - Concrete Angel
TTITLE13=Diamond Rio - I Believe
TTITLE14=Jo Nichols - The Impossible
TTITLE15=Kelley Coffee - When you lie next to me
TTITLE16=Kenney Chesney - Big Star
TTITLE17=Data - Track 
EXTD=
EXTT0=
EXTT1=
EXTT2=
EXTT3=
EXTT4=
EXTT5=
EXTT6=
EXTT7=
EXTT8=
EXTT9=
EXTT10=
EXTT11=
EXTT12=
EXTT13=
EXTT14=
EXTT15=
EXTT16=
EXTT17=
PLAYORDER=
